<?xml version="1.0" encoding="UTF-8" standalone="no"?>
<!-- Created with Inkscape (http://www.inkscape.org/) -->

<svg
   version="1.1"
   id="svg1"
   width="2096.9229"
   height="4119.5688"
   viewBox="0 0 2096.9229 4119.5689"
   sodipodi:docname="9300_5_06.eps"
   inkscape:export-filename="9300_5_06.eps.webp"
   inkscape:export-xdpi="96"
   inkscape:export-ydpi="96"
   xmlns:inkscape="http://www.inkscape.org/namespaces/inkscape"
   xmlns:sodipodi="http://sodipodi.sourceforge.net/DTD/sodipodi-0.dtd"
   xmlns="http://www.w3.org/2000/svg"
   xmlns:svg="http://www.w3.org/2000/svg">
  <defs
     id="defs1" />
  <sodipodi:namedview
     id="namedview1"
     pagecolor="#505050"
     bordercolor="#eeeeee"
     borderopacity="1"
     inkscape:showpageshadow="0"
     inkscape:pageopacity="0"
     inkscape:pagecheckerboard="0"
     inkscape:deskcolor="#505050" />
  <g
     id="g1"
     inkscape:groupmode="layer"
     inkscape:label="1"
     transform="translate(-1605.1304,-602.88446)">
    <g
       id="group-R5">
      <path
         id="path3"
         d="m 21822.9,18601.9 c 0,-666.1 -422.1,-1112 -986.7,-1336.4 -1139.9,-453 -2858.6,-7.7 -2858.6,1336.4 h 3845.3"
         style="fill:#fdbd91;fill-opacity:1;fill-rule:nonzero;stroke:none"
         transform="matrix(0.13333333,0,0,-0.13333333,0,5333.3333)" />
      <path
         id="path4"
         d="m 27551.9,11643.3 c 0,-1115.6 -422.7,-1981.7 -1442.6,-2319.6 H 13690.5 c -2143.2,710.1 -1649.2,3753.3 -136.5,6543.7 1499.1,2765.4 4423.6,2734.5 4423.6,2734.5 0,-2010.2 3845.3,-2010.2 3845.3,0 0,0 1949.6,20.8 3481.4,-1477.7 343.7,-336.6 666.7,-749.8 941.5,-1256.8 793.2,-1462.9 1306.1,-2995.2 1306.1,-4224.1"
         style="fill:#782121;fill-opacity:1;fill-rule:nonzero;stroke:none"
         transform="matrix(0.13333333,0,0,-0.13333333,0,5333.3333)" />
      <path
         id="path5"
         d="m 13014.9,9979.1 c -157.7,162.5 -282.1,357.9 -372.1,585.3 -314.1,793.1 -215.4,1965.8 252,3309.7 l 95.1,-801.8 c -340,-1211.9 -379.9,-2320.2 25,-3093.2 m 1551.7,6401.3 h -436.1 c 569.1,774.2 1325.1,1339.5 2255.6,1685.2 600,222.8 1122.1,291.9 1392.6,313.3 6.3,-47.4 14.7,-93.8 24.9,-139 -801.6,-135.2 -2188.2,-555.4 -3237,-1859.5"
         style="fill:#e9afaf;fill-opacity:1;fill-rule:nonzero;stroke:none"
         transform="matrix(0.13333333,0,0,-0.13333333,0,5333.3333)" />
      <path
         id="path6"
         d="M 13725.8,9537.2 H 26074 c 839.1,291.9 1264.4,1000.2 1264.4,2106.1 0,1135.6 -454.6,2599.6 -1280.2,4122.3 -246.6,454.7 -550.4,860.5 -903.3,1206.1 -1170.3,1144.9 -2614.5,1364.7 -3133.2,1406.8 -131.7,-984.4 -1132.3,-1497.8 -2121.5,-1497.8 -989.3,0 -1990,513.6 -2121.5,1498.2 -270.5,-21.4 -792.6,-90.5 -1392.6,-313.3 -1161.3,-431.4 -2051,-1205.2 -2644.5,-2300 -1142.8,-2108.2 -1553.6,-4052.6 -1098.8,-5201.2 198.2,-500.5 562.5,-846 1083,-1027.2 M 26109.3,9110.3 H 13690.5 c -22.8,0 -45.4,3.6 -67.1,10.8 -663.1,219.7 -1126.6,652.4 -1377.5,1286.1 -500.9,1264.7 -82,3343.9 1120.4,5561.9 806.1,1487 2015.4,2181.8 2887.9,2502.9 944.5,347.5 1693.7,343.8 1725.6,343.3 117,-1.2 211.2,-96.4 211.2,-213.4 0,-889.2 886,-1294.2 1709.2,-1294.2 823.2,0 1709.2,405 1709.2,1294.2 0,117 94.2,212.2 211.2,213.4 84.4,0.3 2055.9,4.3 3632.9,-1538.5 383.5,-375.5 713.2,-815.5 980,-1307.7 858.9,-1584.1 1331.9,-3120.3 1331.9,-4325.8 0,-1305.7 -549.5,-2177.9 -1589,-2522.2 -21.6,-7.2 -44.3,-10.8 -67.1,-10.8"
         style="fill:#1a1a1a;fill-opacity:1;fill-rule:nonzero;stroke:none"
         transform="matrix(0.13333333,0,0,-0.13333333,0,5333.3333)" />
      <path
         id="path7"
         d="m 27338.8,24321.7 c -16.4,-49.8 -34.1,-100.3 -52.6,-152.3 -493.1,-1263 -1460.1,-1936.1 -2045.7,-1174 l 349.3,1715.5 237.7,1166.3 c 913.6,624 2131.8,343.7 1511.3,-1555.5"
         style="fill:#fdbd91;fill-opacity:1;fill-rule:nonzero;stroke:none"
         transform="matrix(0.13333333,0,0,-0.13333333,0,5333.3333)" />
      <path
         id="path8"
         d="m 25274.4,23003.3 c 178,-225.3 401.5,-325.9 647.8,-290.8 489.6,69.8 1013.4,646.2 1334.4,1468.5 18.1,50.8 35.8,101.1 52.1,150.6 264.4,809.4 214.5,1401.8 -140.5,1668.2 -312.6,234.6 -838.7,177.4 -1312.2,-141.6 l -581.6,-2854.9 m 551.8,-361.1 c -232.4,0 -441.9,114 -610.9,333.9 l -8.8,11.4 2.9,14.2 589.6,2894.4 10.6,7.3 c 498.7,340.6 1060,399.8 1396.7,147.1 219.2,-164.4 531.7,-609 162.6,-1738.6 v -0.1 c -16.4,-50 -34.3,-100.8 -52.9,-153 -329.5,-844.2 -873,-1436.2 -1384.8,-1509.1 -35.5,-5 -70.5,-7.5 -105,-7.5"
         style="fill:#451661;fill-opacity:1;fill-rule:nonzero;stroke:none"
         transform="matrix(0.13333333,0,0,-0.13333333,0,5333.3333)" />
      <path
         id="path9"
         d="m 25855.4,22888.4 c 37.5,260.2 56.8,525.1 56.8,793 v 567.5 c 156,-294.9 335.5,-442.4 538.4,-442.4 182,0 382.9,118.7 602.6,356.1 -295.1,-706.5 -753.2,-1212.5 -1156.4,-1270 -14,-2 -27.8,-3.4 -41.4,-4.2"
         style="fill:#c58b83;fill-opacity:1;fill-rule:nonzero;stroke:none"
         transform="matrix(0.13333333,0,0,-0.13333333,0,5333.3333)" />
      <path
         id="path10"
         d="m 25470.3,23054.4 c 125.8,-131.6 266.2,-184.7 426.5,-161.8 418.6,59.7 896.5,602.9 1189.5,1352 285,788.8 277.3,1373.9 -21.3,1605.4 -233.7,181.2 -655.3,137.1 -1046.2,-103.1 l -548.5,-2692.5 m 357.2,-593.7 c -288.4,0 -553.2,140.5 -756.3,404.6 -37.7,49 -52.3,112.1 -39.9,172.7 l 587,2881.8 c 11.1,54.4 42.9,102.4 88.8,133.6 569.9,389.2 1220.7,443.2 1619.4,134.1 267.5,-207.3 643.9,-754.6 160.4,-2090.7 -0.6,-1.7 -1.2,-3.3 -1.9,-5 -358,-917 -943.5,-1538.5 -1528,-1621.8 -43.6,-6.3 -86.8,-9.3 -129.5,-9.3"
         style="fill:#1a1a1a;fill-opacity:1;fill-rule:nonzero;stroke:none"
         transform="matrix(0.13333333,0,0,-0.13333333,0,5333.3333)" />
      <path
         id="path11"
         d="m 12435.7,24321.7 c 16.4,-49.8 34.2,-100.3 52.7,-152.3 493.1,-1263 1460.1,-1936.1 2045.7,-1174 l -349.4,1715.5 -237.6,1166.3 c -913.7,624 -2131.8,343.7 -1511.4,-1555.5"
         style="fill:#fdbd91;fill-opacity:1;fill-rule:nonzero;stroke:none"
         transform="matrix(0.13333333,0,0,-0.13333333,0,5333.3333)" />
      <path
         id="path12"
         d="m 13199.8,23352.2 c -194.5,232.5 -373.6,539.6 -511.6,892.4 -285,788.8 -277.2,1373.9 21.4,1605.4 96.5,74.9 225.1,111.2 370.4,111.2 91.2,0 188.9,-14.3 289.3,-42.4 -543.5,-80.4 -894.7,-633.2 -499.4,-1843.6 16.3,-49.8 34.1,-100.3 52.6,-152.2 80.9,-207.5 174.6,-399 277.3,-570.8"
         style="fill:#fee1cd;fill-opacity:1;fill-rule:nonzero;stroke:none"
         transform="matrix(0.13333333,0,0,-0.13333333,0,5333.3333)" />
      <path
         id="path13"
         d="m 12688.2,24244.6 c 293.1,-749.1 771,-1292.3 1189.6,-1352 160.5,-22.9 300.7,30.1 426.4,161.8 l -548.4,2692.5 c -390.9,240.1 -812.6,284.3 -1046.2,103.1 -298.6,-231.5 -306.4,-816.6 -21.4,-1605.4 M 13947,22460.7 c -42.6,0 -85.8,3 -129.4,9.3 -584.5,83.3 -1170,704.8 -1528,1621.8 -0.7,1.7 -1.3,3.3 -1.9,5 -483.5,1336.1 -107.1,1883.4 160.4,2090.7 398.7,309 1049.5,255.2 1619.4,-134.1 45.9,-31.2 77.7,-79.2 88.8,-133.6 l 587,-2881.8 c 12.3,-60.6 -2.3,-123.7 -40,-172.7 -203,-264.1 -467.9,-404.6 -756.3,-404.6"
         style="fill:#1a1a1a;fill-opacity:1;fill-rule:nonzero;stroke:none"
         transform="matrix(0.13333333,0,0,-0.13333333,0,5333.3333)" />
      <path
         id="path14"
         d="m 25698.7,24667.5 v -986.2 c 0,-1696.3 -811.9,-3305.1 -2210.1,-4265.7 -19.9,-13.5 -39.8,-26.3 -59,-39.9 -2132.6,-1429.5 -4924.7,-1429.5 -7057.2,-0.7 -19.2,13.5 -39.1,27.1 -59.1,40.6 -1398.9,959.9 -2210.8,2568.7 -2210.8,4265.7 v 986.2 c 0,0 3.6,63.4 10.7,177.2 52.7,900.1 291,4938.9 329.5,5042.1 1269.4,3416.8 13960.6,2579.3 11256,-5219.3"
         style="fill:#e3af8a;fill-opacity:1;fill-rule:nonzero;stroke:none"
         transform="matrix(0.13333333,0,0,-0.13333333,0,5333.3333)" />
      <path
         id="path15"
         d="m 19900.8,18511.5 c -488.6,0 -977,58.7 -1455,176.3 -267,82.3 -524.5,186.4 -768.1,314 420.3,-86.1 847.7,-129.2 1275,-129.2 1231.2,0 2462.1,357.4 3528.3,1072.4 19.3,13.5 39.2,26.3 59.1,39.8 1398.2,960.6 2210.1,2569.4 2210.1,4265.8 l 71.7,1057.4 c 158.8,-388.5 373.3,-727.3 663.3,-927.5 v -699.1 c 0,-1650.5 -791.6,-3179.4 -2117.6,-4089.7 -19,-13 -38.1,-25.9 -57.2,-38.8 -1035.6,-694.3 -2222.6,-1041.4 -3409.6,-1041.4"
         style="fill:#c58b83;fill-opacity:1;fill-rule:nonzero;stroke:none"
         transform="matrix(0.13333333,0,0,-0.13333333,0,5333.3333)" />
      <path
         id="path16"
         d="m 14659.8,25139.8 c 806.3,1316.8 929.5,2037.6 1127.3,3803.9 499.4,-752.8 1245.2,-1148.6 2225.3,-1178.7 2.3,0 4.6,-0.1 6.9,-0.1 84.7,0 158.1,48.2 193.1,123.7 36,77.4 22.2,169 -34.8,232.6 -4.3,4.8 -320.4,361.6 -464.8,814.6 992.3,-763.6 2058.1,-1271.7 3174.8,-1512.7 507.4,-109.5 1026.1,-164.1 1553.9,-164.1 636.1,0 1285.3,79.4 1942.6,238.2 1.2,-19.4 2.5,-39.6 3.9,-60.5 -583.9,-240.9 -1508.9,-434.3 -2513.3,-434.3 -942.3,0 -1954.5,170.1 -2821.6,630.7 -21.8,11.6 -44,16.8 -65.4,16.8 -94.6,0 -172.2,-101.9 -123.6,-200 26.8,-54.2 37.6,-72.5 37.6,-72.5 -75.9,-47 -225.9,-69.7 -419.1,-69.7 -542.2,0 -1425,178 -1969.4,494.8 -53.2,31 -110.3,45.2 -166.3,45.2 -159.8,0 -310.4,-116 -337.7,-289.9 -140.6,-897.4 -541.5,-1563 -1349.4,-2418"
         style="fill:#c58b83;fill-opacity:1;fill-rule:nonzero;stroke:none"
         transform="matrix(0.13333333,0,0,-0.13333333,0,5333.3333)" />
      <path
         id="path17"
         d="m 17677.7,19001.8 c -121.5,24.9 -242.6,53.4 -362.8,85.5 -282.6,132.3 -558,287.3 -823.4,465.2 -19.2,12.8 -38.3,25.8 -57.2,38.8 -1326.4,910.1 -2118.3,2439.2 -2118.3,4090.1 v 921.6 c 110.5,166.4 211.3,322.7 303.5,471.4 -8.4,-143 -13.2,-224.7 -13.2,-224.7 v -986.2 c 0,-1697.1 811.9,-3305.9 2210.8,-4266.5 19.9,-12.8 41.9,-23.7 59.8,-39.8 242.9,-219.9 512.2,-404.2 800.8,-555.4"
         style="fill:#fee1cd;fill-opacity:1;fill-rule:nonzero;stroke:none"
         transform="matrix(0.13333333,0,0,-0.13333333,0,5333.3333)" />
      <path
         id="path18"
         d="m 18445.8,18687.8 c -385.6,94.9 -764.5,228.1 -1130.9,399.5 120.2,-32.1 241.3,-60.6 362.8,-85.5 243.6,-127.6 501.1,-231.7 768.1,-314"
         style="fill:#e5cbc7;fill-opacity:1;fill-rule:nonzero;stroke:none"
         transform="matrix(0.13333333,0,0,-0.13333333,0,5333.3333)" />
      <path
         id="path19"
         d="m 14642.8,29812.7 c 0.4,1.1 0.9,2.4 1.5,4 -0.5,-1.3 -1.1,-2.8 -1.5,-4 M 14316,24661.3 v -979.9 c 0,-1650.9 791.9,-3180 2118.3,-4090.1 18.9,-13 38,-26 57.2,-38.8 2071.5,-1388.2 4748,-1388 6818.9,0.4 19.1,12.9 38.2,25.8 57.2,38.8 1326,910.3 2117.6,2439.2 2117.6,4089.7 v 986.1 c 0,23.8 4,47.5 11.8,70 1434,4134.4 -1733.3,5774 -3161.6,6287 -3095.8,1112.1 -7035.6,496.3 -7686.8,-1196.4 -39.5,-275.7 -219.4,-3221.1 -332.6,-5166.8 M 19900.8,18090 c -1304.5,0 -2565.5,383.1 -3646.9,1107.8 -20.4,13.7 -40.7,27.5 -61,41.3 -1442.6,990 -2303.8,2650.6 -2303.8,4442.3 v 986.1 c 0,4.2 0.1,8.3 0.4,12.4 298.6,5134.9 339.6,5245.2 353,5281.5 355.2,955.7 1533,1659.6 3231.4,1931.1 1606.8,256.8 3478.1,82.6 5005.8,-466.2 1455.2,-522.7 2557.1,-1351.6 3186.5,-2397.1 740.7,-1230.5 823.4,-2709.8 246,-4397.4 v -950.4 c 0,-1791.3 -861,-3451.7 -2303,-4441.6 -20.3,-14 -40.6,-27.8 -61.1,-41.5 -1081.2,-724.9 -2342.4,-1108.2 -3647,-1108.3 h -0.3"
         style="fill:#1a1a1a;fill-opacity:1;fill-rule:nonzero;stroke:none"
         transform="matrix(0.13333333,0,0,-0.13333333,0,5333.3333)" />
      <path
         id="path20"
         d="m 25631.8,31978.7 c 1601,-2045.7 1401.8,-5605.6 53.4,-7471.3 -1031.8,569.3 -1100.1,3261.8 -1100.1,3261.8 -2442,-664.6 -4913.2,-259 -7153.9,1671.4 -47.7,-758.5 587.7,-1462.2 587.7,-1462.2 -288.2,8.5 -546.5,50.5 -778.4,120.2 -810.5,242.7 -1292.9,829.7 -1588.2,1567.6 -284.6,-2561.6 -302.4,-3130.8 -1549.8,-4998.7 -1245.2,2668.4 -1474.3,5959.3 601.3,6943.4 -2893.9,996.1 -1826.6,3012.7 663.9,1221.7 -1221.8,1755.4 320.2,2432.1 640.4,498.1 1800.9,3289.5 9712.6,2134.6 10785,-1601 l -1158.5,248.3 c -2.1,0.7 -2.8,0.7 -2.8,0.7"
         style="fill:#502d16;fill-opacity:1;fill-rule:nonzero;stroke:none"
         transform="matrix(0.13333333,0,0,-0.13333333,0,5333.3333)" />
      <path
         id="path21"
         d="m 14207.3,25220 c -93.7,249.9 -176.9,502.7 -249,756.7 771.6,1307.7 886.1,2193.2 1094.6,4079.6 10.1,91.7 85.2,143.4 161,143.4 55.4,0 111.2,-27.7 142.2,-87.6 49,-94.5 96,-194.6 138.7,-301.8 -29.7,-32.5 -49.5,-74.3 -54.6,-120.5 l -34.2,-308.5 c -231.6,-2099.5 -302.3,-2738.8 -1198.7,-4161.3"
         style="fill:#28170b;fill-opacity:1;fill-rule:nonzero;stroke:none"
         transform="matrix(0.13333333,0,0,-0.13333333,0,5333.3333)" />
      <path
         id="path22"
         d="m 13473.6,32533.3 c -183.6,177.7 -279.4,349 -292.9,491.5 -10.2,107.1 30.5,185.3 124.6,239.3 81.1,46.5 191.5,72.1 327.3,72.1 67.9,0 142.1,-6.4 222.1,-19.8 -414.5,-77.5 -573.4,-398.9 -381.1,-783.1"
         style="fill:#daa8b0;fill-opacity:1;fill-rule:nonzero;stroke:none"
         transform="matrix(0.13333333,0,0,-0.13333333,0,5333.3333)" />
      <path
         id="path23"
         d="m 13866.2,25823.8 c -350.4,1024.7 -527.2,2055.2 -495,2939.2 33.4,919 307.6,2125.7 1424,2655 6,2.8 11.8,5.9 17.4,9.2 44.8,-108.9 21.9,-241.3 -81.3,-326.9 -1215.4,-1007.8 -1349.1,-3095.5 -773,-5123.6 -29.7,-50.3 -60.4,-101.2 -92.1,-152.9"
         style="fill:#daa8b0;fill-opacity:1;fill-rule:nonzero;stroke:none"
         transform="matrix(0.13333333,0,0,-0.13333333,0,5333.3333)" />
      <path
         id="path24"
         d="m 14138.4,25111.8 c -99.8,235.7 -190.7,473.7 -272.2,712 31.7,51.7 62.4,102.6 92.1,152.9 72.1,-254 155.3,-506.8 249,-756.7 -22.5,-35.6 -45.4,-71.6 -68.9,-108.2"
         style="fill:#cca2b2;fill-opacity:1;fill-rule:nonzero;stroke:none"
         transform="matrix(0.13333333,0,0,-0.13333333,0,5333.3333)" />
      <path
         id="path25"
         d="m 15549.8,32944 c -2.2,3.6 -4.5,7.1 -6.9,10.5 -495.9,712.5 -460.6,1150.7 -372.7,1282.8 25.7,38.6 52.6,48.9 77.7,48.9 9,0 17.7,-1.3 26.1,-3.2 50.9,-10.9 124.7,-55.2 202.6,-148.9 -117.7,-185.8 -129.1,-534.2 82.5,-1000.3 30.5,-67.3 22.2,-135.6 -9.3,-189.8"
         style="fill:#daa8b0;fill-opacity:1;fill-rule:nonzero;stroke:none"
         transform="matrix(0.13333333,0,0,-0.13333333,0,5333.3333)" />
      <path
         id="path26"
         d="m 16427.8,33363.6 c -46.3,0 -92.3,9.5 -134.3,28.4 684.2,1049 2195.9,1659.3 4039.2,1659.3 318.6,0 647.3,-18.3 983.1,-55.6 1205.6,-134 2491.2,-526.6 3504.1,-1170.5 -1307.8,531.2 -2944.7,876 -4443.6,883 -134.9,-258.8 -438.5,-374.2 -748.5,-374.2 -277,0 -559.2,92.3 -730.1,256.8 -932.2,-167.2 -1721.3,-520.1 -2213.7,-1108.6 -66.1,-79.1 -161.8,-118.6 -256.2,-118.6"
         style="fill:#e9c6af;fill-opacity:1;fill-rule:nonzero;stroke:none"
         transform="matrix(0.13333333,0,0,-0.13333333,0,5333.3333)" />
      <path
         id="path27"
         d="m 24585.1,27982.7 c 45.4,0 90.2,-14.6 127.4,-42.3 52.6,-39.1 84.4,-100.2 86,-165.7 17.1,-663.3 202.4,-2386.8 833.7,-2966.5 1162.9,1802 1346.8,5102.7 -168.5,7039 -55.4,70.7 -60.5,168.6 -12.9,244.7 47.7,76.3 138,114.3 225.8,95.5 l 787.8,-168.9 c -739.8,1740.4 -3063.7,2745.5 -5148.6,2977.2 -2378.1,264.5 -4387.9,-429.5 -5120.5,-1767.5 -43.7,-79.9 -133,-123.2 -223,-108 -89.8,15.3 -159.9,85.8 -174.8,175.6 -118.8,717.5 -394.4,959.5 -523.5,987.2 -31.6,6.9 -68.9,6.8 -103.8,-45.7 -87.9,-132.1 -123.2,-570.3 372.7,-1282.8 59.4,-85.3 48.7,-201.1 -25.4,-274 -74.2,-73 -190.1,-81.8 -274.4,-21.2 -917.2,659.6 -1633.9,779.1 -1937.8,604.8 -94.1,-54 -134.8,-132.2 -124.6,-239.3 32.5,-341.6 537.5,-848.9 1592.6,-1212.1 82,-28.2 138.8,-103.3 143.6,-190 4.8,-86.6 -43.2,-167.5 -121.7,-204.7 -1116.4,-529.3 -1390.6,-1736 -1424,-2655 -39.6,-1089.5 238.1,-2401.7 767.2,-3651.2 962,1499.7 1030.2,2117.5 1267.6,4269.5 l 34.2,308.5 c 10.7,97.3 86.4,174.8 183.4,187.9 97.2,13.3 190.6,-41.3 226.9,-132.3 343.7,-859.5 908,-1355.6 1717.8,-1506 -183.3,303 -379.7,744.7 -350.2,1214.6 5.1,80.9 55.6,151.9 130.3,183.4 74.7,31.4 160.8,17.9 222.1,-35.1 2060.8,-1775.4 4401.9,-2322.9 6958.6,-1627.1 18.4,5 37.3,7.5 56,7.5 M 25685,24294 c -35,0 -70.4,8.6 -102.9,26.5 -941.5,519.4 -1151.7,2437.4 -1198,3176.7 -1202.5,-290.4 -2377.6,-315.5 -3496.5,-74.1 -1116.7,241 -2182.5,749.1 -3174.8,1512.7 144.4,-453 460.5,-809.8 464.8,-814.6 57,-63.6 70.8,-155.2 34.8,-232.6 -36,-77.5 -112.3,-126.2 -200,-123.6 -980.1,30.1 -1725.9,425.9 -2225.3,1178.7 -225.4,-2012.8 -354,-2668 -1507.1,-4394.7 -42.8,-64.2 -117.3,-100.3 -193.7,-94.3 -76.9,5.9 -144.6,52.7 -177.2,122.6 -1223.7,2622.1 -1459.7,5749.4 304.9,6994.4 -1009.2,438.5 -1419.2,1001.5 -1458.4,1412.7 -26.1,275.1 96.8,512 337.2,650 323.2,185.5 916.8,199.1 1713.5,-205.8 -175.7,478 -129.7,837.5 8.5,1045.2 125.6,188.8 331,273.6 548.8,226.6 314,-67.4 574.5,-373.7 735.3,-847 455.3,578.5 1135.4,1023.1 1994.6,1299.4 953.3,306.6 2083.7,399 3269.5,267.2 2361.4,-262.4 5019.7,-1487.1 5635.2,-3631.4 20.7,-72.1 2.1,-149.8 -49.2,-204.6 -51.2,-54.9 -127.4,-78.8 -200.7,-63 l -635.2,136.2 c 577.9,-947.9 882.3,-2163.4 864.8,-3484.4 -19.1,-1450.8 -427.2,-2832.3 -1119.7,-3790.4 -41.4,-57.3 -106.6,-88.4 -173.2,-88.4"
         style="fill:#2b1100;fill-opacity:1;fill-rule:nonzero;stroke:none"
         transform="matrix(0.13333333,0,0,-0.13333333,0,5333.3333)" />
      <path
         id="path28"
         d="m 24585,27555.7 c -94.2,0 -180.4,62.8 -206,158 -30.6,113.9 36.8,231 150.7,261.7 264.9,71.2 533,156.8 796.8,254.4 110.7,40.9 233.3,-15.6 274.3,-126.1 40.9,-110.6 -15.6,-233.4 -126.2,-274.3 -275.9,-102.1 -556.6,-191.7 -834.1,-266.4 -18.5,-4.9 -37.2,-7.3 -55.5,-7.3"
         style="fill:#451661;fill-opacity:1;fill-rule:nonzero;stroke:none"
         transform="matrix(0.13333333,0,0,-0.13333333,0,5333.3333)" />
      <path
         id="path29"
         d="m 25632.2,24808.2 c -584.1,536.4 -786.4,2051.9 -826.9,2800.8 223.4,64.6 447.9,138.5 669.3,220.4 110.6,40.9 167.1,163.7 126.2,274.3 -31.9,86.1 -113.4,139.4 -200.2,139.4 -24.6,0 -49.7,-4.2 -74.1,-13.3 -263.8,-97.6 -531.9,-183.2 -796.8,-254.4 -0.1,-0.1 -0.1,-0.1 -0.2,-0.1 -0.1,0 -0.3,-0.1 -0.4,-0.1 -716.7,-195.1 -1416.3,-292.4 -2097.7,-292.4 -1749.4,0 -3377.8,641.8 -4860.9,1919.5 -39.4,34.1 -89.1,51.8 -139.4,51.8 -27.9,0 -56.1,-5.5 -82.7,-16.7 -74.7,-31.5 -125.2,-102.5 -130.3,-183.4 -29.5,-469.9 166.9,-911.6 350.2,-1214.6 -177.4,32.9 -343.1,82.5 -497.3,148.8 -676.6,1204.7 -595.7,1740.3 90.8,1740.3 271.2,0 636.8,-83.6 1087.7,-242.4 1904.7,-614.6 3598.4,-1017.5 4888.8,-1017.5 1736.6,0 2743.7,728.9 2556.7,2652.5 1261.2,-1963.2 1037.1,-5008.5 -62.8,-6712.9"
         style="fill:#28170b;fill-opacity:1;fill-rule:nonzero;stroke:none"
         transform="matrix(0.13333333,0,0,-0.13333333,0,5333.3333)" />
      <path
         id="path30"
         d="m 25685.2,24507.4 c -854.8,471.7 -1048.3,2400.7 -1089.6,3048.5 14.9,0.8 30,3.1 44.9,7.1 54.9,14.8 109.8,30.1 164.8,46 40.5,-748.9 242.8,-2264.4 826.9,-2800.8 1099.9,1704.4 1324,4749.7 62.8,6712.9 -14.1,145.6 -35.1,298.1 -63.2,457.6 1601,-2045.7 1401.8,-5605.6 53.4,-7471.3 m -3242.9,2964.7 c -1724.6,-0.1 -3425.4,602.4 -5011.1,1968.5 -47.7,-758.5 587.7,-1462.2 587.7,-1462.2 -288.2,8.5 -546.5,50.5 -778.4,120.2 -61,100.5 -117.5,197.1 -169.5,289.6 154.2,-66.3 319.9,-115.9 497.3,-148.8 -183.3,303 -379.7,744.7 -350.2,1214.6 5.1,80.9 55.6,151.9 130.3,183.4 26.6,11.2 54.8,16.7 82.7,16.7 50.3,0 100,-17.7 139.4,-51.8 1483.1,-1277.7 3111.5,-1919.5 4860.9,-1919.5 681.4,0 1381,97.3 2097.7,292.4 0.1,0 0.3,0.1 0.4,0.1 -113.1,-30.6 -180.4,-146.5 -151,-259.8 -645.3,-159.4 -1292.6,-243.4 -1936.2,-243.4"
         style="fill:#2b1100;fill-opacity:1;fill-rule:nonzero;stroke:none"
         transform="matrix(0.13333333,0,0,-0.13333333,0,5333.3333)" />
      <path
         id="path31"
         d="m 24595.6,27555.9 c -8.5,134.1 -10.5,213.3 -10.5,213.3 -68.9,-18.7 -137.7,-36.6 -206.6,-53.7 -29.4,113.3 37.9,229.2 151,259.8 0.1,0 0.1,0 0.2,0.1 264.9,71.2 533,156.8 796.8,254.4 24.4,9.1 49.5,13.3 74.1,13.3 86.8,0 168.3,-53.3 200.2,-139.4 40.9,-110.6 -15.6,-233.4 -126.2,-274.3 -221.4,-81.9 -445.9,-155.8 -669.3,-220.4 -55,-15.9 -109.9,-31.2 -164.8,-46 -14.9,-4 -30,-6.3 -44.9,-7.1"
         style="fill:#2b1100;fill-opacity:1;fill-rule:nonzero;stroke:none"
         transform="matrix(0.13333333,0,0,-0.13333333,0,5333.3333)" />
      <path
         id="path32"
         d="m 23087.5,29614.2 c -781,0 -1414.1,262.1 -1414.1,585.5 0,323.4 633.1,331.7 1414.1,331.7 781,0 1414.1,-8.3 1414.1,-331.7 0,-323.4 -633.1,-585.5 -1414.1,-585.5"
         style="fill:#784421;fill-opacity:1;fill-rule:nonzero;stroke:none"
         transform="matrix(0.13333333,0,0,-0.13333333,0,5333.3333)" />
      <path
         id="path33"
         d="m 19900.2,17307.7 c -60.6,0 -121.5,2.2 -182.4,6.6 122.1,121.5 186.2,246.9 194.5,379.2 7.9,127.7 -37.7,259.5 -138.6,397.8 42.3,-0.9 84.6,-1.3 127.1,-1.3 h 0.3 c 569.6,0.1 1130.8,73.1 1672.5,215.8 -173.5,-683.5 -947.8,-998.1 -1673.4,-998.1"
         style="fill:#d18b7d;fill-opacity:1;fill-rule:nonzero;stroke:none"
         transform="matrix(0.13333333,0,0,-0.13333333,0,5333.3333)" />
      <path
         id="path34"
         d="m 19554.4,17178.1 c 62.8,44.9 117.3,90.3 163.4,136.2 60.9,-4.4 121.8,-6.6 182.4,-6.6 725.6,0 1499.9,314.6 1673.4,998.1 66.3,17.5 132.5,36 198.2,55.6 -105.8,-633.5 -620.1,-935.5 -943.2,-1064.8 l -1274.2,-118.5"
         style="fill:#1a1a1a;fill-opacity:1;fill-rule:nonzero;stroke:none"
         transform="matrix(0.13333333,0,0,-0.13333333,0,5333.3333)" />
      <path
         id="path35"
         d="m 19901.1,18090 h -0.3 c -42.5,0 -84.8,0.4 -127.1,1.3 -59.3,81.2 -137.6,164.7 -235.3,251 127.8,-17.1 354.6,-41 626,-41 185.8,0 392.5,11.2 602.7,43.4 l 1023.6,217.9 c -1.8,-70.6 -8.3,-137.6 -18.9,-201.2 -65.7,-19.6 -131.9,-38.1 -198.2,-55.6 -541.7,-142.7 -1102.9,-215.7 -1672.5,-215.8"
         style="fill:#1a1a1a;fill-opacity:1;fill-rule:nonzero;stroke:none"
         transform="matrix(0.13333333,0,0,-0.13333333,0,5333.3333)" />
      <path
         id="path36"
         d="m 19717.8,17314.3 c -28.4,2.1 -56.8,4.6 -85.2,7.6 135.9,122.4 208.4,248.1 216.4,375.6 7.7,124.5 -43.7,255.4 -156.4,395.8 26.9,-0.8 54.1,-1.5 81.1,-2 100.9,-138.3 146.5,-270.1 138.6,-397.8 -8.3,-132.3 -72.4,-257.7 -194.5,-379.2"
         style="fill:#c58b83;fill-opacity:1;fill-rule:nonzero;stroke:none"
         transform="matrix(0.13333333,0,0,-0.13333333,0,5333.3333)" />
      <path
         id="path37"
         d="m 19301.1,17090.8 114.3,71 c 84.7,52.6 157.1,106 217.2,160.1 28.4,-3 56.8,-5.5 85.2,-7.6 -46.1,-45.9 -100.6,-91.3 -163.4,-136.2 l 1274.2,118.5 c 323.1,129.3 837.4,431.3 943.2,1064.8 11.1,3.3 22.2,6.6 33.3,10 -13.1,-82.4 -33.1,-160.7 -59.4,-235 8.3,-2.3 16.6,-4.1 25.5,-6.5 -171.2,-386 -556.6,-920.3 -1375.1,-920.3 -38.7,0 -78.5,1.2 -119.2,3.6 0,0 59.3,-7.8 163.9,-16.3 l -1139.7,-106.1"
         style="fill:#1a1a1a;fill-opacity:1;fill-rule:nonzero;stroke:none"
         transform="matrix(0.13333333,0,0,-0.13333333,0,5333.3333)" />
      <path
         id="path38"
         d="m 19773.7,18091.3 c -27,0.5 -54.2,1.2 -81.1,2 -69.9,87 -163.2,177.6 -280.5,272.6 l -97.3,78.8 123.1,-23 c 4.5,-0.8 313.3,-57.2 726.7,-57.2 182.4,0 385.1,11 591.1,42.5 l 1098.9,234.1 v -39.2 c 0,-0.1 0,-0.2 0,-0.3 -13.3,0.2 -22.6,0.3 -27.5,0.3 -2.8,0 -4.2,0 -4.2,0 0,-80 -6.1,-156.8 -17.8,-230.5 -11.1,-3.4 -22.2,-6.7 -33.3,-10 10.6,63.6 17.1,130.6 18.9,201.2 l -1023.6,-217.9 c -210.2,-32.2 -416.9,-43.4 -602.7,-43.4 -271.4,0 -498.2,23.9 -626,41 97.7,-86.3 176,-169.8 235.3,-251"
         style="fill:#1a1a1a;fill-opacity:1;fill-rule:nonzero;stroke:none"
         transform="matrix(0.13333333,0,0,-0.13333333,0,5333.3333)" />
      <path
         id="path39"
         d="m 26364.7,9663.7 509.4,4296.2 c 303.7,-850.5 464.3,-1641.6 464.3,-2316.6 0,-969.9 -327.1,-1634.1 -973.7,-1979.6"
         style="fill:#782121;fill-opacity:1;fill-rule:nonzero;stroke:none"
         transform="matrix(0.13333333,0,0,-0.13333333,0,5333.3333)" />
      <path
         id="path40"
         d="m 26334.8,9411.2 29.9,252.5 c 646.6,345.5 973.7,1009.7 973.7,1979.6 0,675 -160.6,1466.1 -464.3,2316.6 l 54.2,457.2 c 392.2,-986.1 623.6,-1948.4 623.6,-2773.8 0,-1029.5 -359.9,-1846.6 -1217.1,-2232.1"
         style="fill:#1a1a1a;fill-opacity:1;fill-rule:nonzero;stroke:none"
         transform="matrix(0.13333333,0,0,-0.13333333,0,5333.3333)" />
      <path
         id="path41"
         d="m 25668.1,16380.4 h -1166.8 c -130.1,161.8 -265.4,310 -404,445.8 -20.8,20.3 -41.6,40.4 -62.5,60.2 -339.4,320.9 -783.7,491.2 -1239.8,491.2 -142.8,0 -286.7,-16.7 -428.9,-50.7 -434.6,-103.8 -866.8,-141.2 -1224.4,-149.4 462.1,248.6 806.5,651.4 880,1201 518.7,-42.1 1962.9,-261.9 3133.2,-1406.8 185,-181.1 356.4,-378.8 513.2,-591.3"
         style="fill:#d35f5f;fill-opacity:1;fill-rule:nonzero;stroke:none"
         transform="matrix(0.13333333,0,0,-0.13333333,0,5333.3333)" />
      <path
         id="path42"
         d="m 25930.8,16380.4 h -262.7 c -156.8,212.5 -328.2,410.2 -513.2,591.3 -1170.3,1144.9 -2614.5,1364.7 -3133.2,1406.8 -73.5,-549.6 -417.9,-952.4 -880,-1201 -55.4,-1.2 -109.1,-1.8 -160.7,-1.8 -228.3,0 -416.1,11 -540.2,21.2 l 398.3,37 8.8,2.1 c 561.3,223.1 912.5,633.7 990.3,1145.5 168.8,52.2 335.7,111.3 499.9,177.2 682.4,-97.2 1921.5,-412.5 2966.2,-1434.5 219.7,-215.2 430.9,-461.6 626.5,-743.8"
         style="fill:#1a1a1a;fill-opacity:1;fill-rule:nonzero;stroke:none"
         transform="matrix(0.13333333,0,0,-0.13333333,0,5333.3333)" />
      <path
         id="path43"
         d="m 21838.2,18381.5 c 10.8,71.4 16.3,144.9 16.4,220.1 67.7,-1.4 240.2,-8.3 483.5,-42.9 -164.2,-65.9 -331.1,-125 -499.9,-177.2"
         style="fill:#1a1a1a;fill-opacity:1;fill-rule:nonzero;stroke:none"
         transform="matrix(0.13333333,0,0,-0.13333333,0,5333.3333)" />
      <path
         id="path44"
         d="m 20440.8,17196.9 c -104.6,8.5 -163.9,16.3 -163.9,16.3 40.7,-2.4 80.5,-3.6 119.2,-3.6 818.5,0 1203.9,534.3 1375.1,920.3 -8.9,2.4 -17.2,4.2 -25.5,6.5 26.3,74.3 46.3,152.6 59.4,235 11.1,3.3 22,6.7 33.1,10.1 -77.8,-511.8 -429,-922.4 -990.3,-1145.5 l -8.8,-2.1 -398.3,-37"
         style="fill:#1a1a1a;fill-opacity:1;fill-rule:nonzero;stroke:none"
         transform="matrix(0.13333333,0,0,-0.13333333,0,5333.3333)" />
      <path
         id="path45"
         d="m 21805.1,18371.4 c 11.7,73.7 17.8,150.5 17.8,230.5 0,0 1.4,0 4.2,0 4.9,0 14.2,-0.1 27.5,-0.3 -0.1,-75.2 -5.6,-148.7 -16.4,-220.1 -11.1,-3.4 -22,-6.8 -33.1,-10.1"
         style="fill:#1a1a1a;fill-opacity:1;fill-rule:nonzero;stroke:none"
         transform="matrix(0.13333333,0,0,-0.13333333,0,5333.3333)" />
      <path
         id="path46"
         d="m 14507.6,7438.2 h 10743.5 c 362.1,0 666.9,270.9 709.6,630.4 l 865.4,7299.6 c 50.4,425 -281.6,798.7 -709.6,798.7 H 13642.2 c -428,0 -759.9,-373.7 -709.5,-798.7 l 865.4,-7299.6 c 42.6,-359.5 347.4,-630.4 709.5,-630.4"
         style="fill:#b8c5d3;fill-opacity:1;fill-rule:nonzero;stroke:none"
         transform="matrix(0.13333333,0,0,-0.13333333,0,5333.3333)" />
      <path
         id="path47"
         d="m 13941.4,8672.9 -796.8,6720.4 c -17.1,144.2 26.6,283.3 123,391.8 96.4,108.6 229.4,168.3 374.6,168.3 h 11538.4 c -14.4,-126.5 -30.2,-251.7 -47.4,-374.9 H 14165.7 c -391,0 -694.2,-348.5 -648.2,-744.8 l 713.8,-6145.8 c -8.7,0.1 -17.3,0.1 -25.9,0.1 -88.6,0 -176.8,-5 -264,-15.1"
         style="fill:#e3e8ed;fill-opacity:1;fill-rule:nonzero;stroke:none"
         transform="matrix(0.13333333,0,0,-0.13333333,0,5333.3333)" />
      <path
         id="path48"
         d="m 14956.3,7438.2 h 9846.1 c 330.8,0 609.3,252.6 648.2,587.9 l 790.7,6807.6 c 46,396.3 -257.3,744.8 -648.3,744.8 H 14165.7 c -391,0 -694.2,-348.5 -648.2,-744.8 l 790.6,-6807.6 c 39,-335.3 317.5,-587.9 648.2,-587.9"
         style="fill:#b8c5d3;fill-opacity:1;fill-rule:nonzero;stroke:none"
         transform="matrix(0.13333333,0,0,-0.13333333,0,5333.3333)" />
      <path
         id="path49"
         d="m 13642.2,15953.4 c -145.2,0 -278.2,-59.7 -374.6,-168.3 -96.4,-108.5 -140.1,-247.6 -123,-391.8 L 14010,8093.8 c 29.9,-252 243.8,-442.1 497.6,-442.1 h 10743.5 c 253.8,0 467.7,190.1 497.6,442.1 l 865.4,7299.5 c 17.1,144.2 -26.6,283.3 -123,391.8 -96.4,108.6 -229.4,168.3 -374.6,168.3 H 13642.2 M 25251.1,7224.8 H 14507.6 c -470,0 -866.2,351.9 -921.5,818.7 l -865.4,7299.6 c -31.2,263.1 51.8,527.5 227.8,725.6 175.9,198.1 428.8,311.7 693.7,311.7 h 12474.3 c 265,0 517.8,-113.6 693.8,-311.7 176,-198.1 259,-462.5 227.8,-725.6 l -865.5,-7299.6 c -55.3,-466.8 -451.5,-818.7 -921.5,-818.7"
         style="fill:#1a1a1a;fill-opacity:1;fill-rule:nonzero;stroke:none"
         transform="matrix(0.13333333,0,0,-0.13333333,0,5333.3333)" />
      <path
         id="path50"
         d="m 25807.5,8590 c -92.6,28.1 -187.4,50.3 -283.7,66.4 l 717.5,6177.3 c 46,396.3 -257.3,744.8 -648.3,744.8 h -459.8 c 17.2,123.2 33,248.4 47.4,374.9 h 935.9 c 145.2,0 278.2,-59.7 374.6,-168.3 96.4,-108.5 140.1,-247.6 123,-391.8 L 25807.5,8590"
         style="fill:#b3a9c3;fill-opacity:1;fill-rule:nonzero;stroke:none"
         transform="matrix(0.13333333,0,0,-0.13333333,0,5333.3333)" />
      <path
         id="path51"
         d="m 19378,7665.1 c -1338.9,306.8 -2619,597.2 -3796.2,817.5 426.6,-31.8 838.7,-47.6 1237.7,-47.6 4838,0 7643.7,2342.5 8313.7,7143.5 h 459.8 c 391,0 694.3,-348.5 648.3,-744.8 l -717.5,-6177.3 c -125,21 -252.5,31.6 -380.8,31.6 -150.4,0 -302,-14.6 -452.1,-44.2 -1813.3,-234.2 -3591.2,-561.9 -5312.9,-978.7"
         style="fill:#9590b1;fill-opacity:1;fill-rule:nonzero;stroke:none"
         transform="matrix(0.13333333,0,0,-0.13333333,0,5333.3333)" />
      <path
         id="path52"
         d="m 26013.7,8515.8 c -67.3,28.1 -136.1,52.9 -206.2,74.2 l 806.6,6803.3 c 17.1,144.2 -26.6,283.3 -123,391.8 -96.4,108.6 -229.4,168.3 -374.6,168.3 h -935.9 c 8,70.7 15.6,141.7 22.8,213.4 h 913.3 c 427.9,0 760,-373.4 709.6,-798.6 l -812.6,-6852.4 m -12283.1,122.9 -8.1,67.8 v 0.5 c 72.4,-11.8 145,-23.3 216.6,-34.3 -70.2,-8.2 -139.8,-19.5 -208.5,-34"
         style="fill:#1a1a1a;fill-opacity:1;fill-rule:nonzero;stroke:none"
         transform="matrix(0.13333333,0,0,-0.13333333,0,5333.3333)" />
      <path
         id="path53"
         d="m 19056.5,11804.1 c 0,-454.8 368.6,-823.4 823.4,-823.4 454.8,0 823.4,368.6 823.4,823.4 0,454.8 -368.6,823.4 -823.4,823.4 -454.8,0 -823.4,-368.6 -823.4,-823.4"
         style="fill:#451661;fill-opacity:1;fill-rule:nonzero;stroke:none"
         transform="matrix(0.13333333,0,0,-0.13333333,0,5333.3333)" />
      <path
         id="path54"
         d="m 13095.8,8146.8 c -475,-317.9 -713.1,-768 -772.3,-1244.1 -139.8,-1124.8 769.1,-2107.6 1902.5,-2107.6 h 8367.1 V 6724.6 L 14623.2,8433 c -527,105.7 -1080.7,12.7 -1527.4,-286.2"
         style="fill:#deaa87;fill-opacity:1;fill-rule:nonzero;stroke:none"
         transform="matrix(0.13333333,0,0,-0.13333333,0,5333.3333)" />
      <path
         id="path55"
         d="m 13632.2,5114.6 c -264.1,97.4 -503.3,259.3 -693.7,474.8 -206.4,233.6 -339.1,507.8 -391.1,799.7 342.4,-312.9 800.6,-505.8 1302.8,-505.8 h 1399.2 c -229.9,-161.3 -586.2,-350.8 -1040.4,-403.7 -298.1,-34.6 -483.8,-129 -552,-280.3 -12.7,-28.1 -20.6,-56.6 -24.8,-84.7"
         style="fill:#d38d5f;fill-opacity:1;fill-rule:nonzero;stroke:none"
         transform="matrix(0.13333333,0,0,-0.13333333,0,5333.3333)" />
      <path
         id="path56"
         d="m 12522.9,6703.1 c 1.1,57.4 5.2,115.3 12.4,173.2 56.7,455.7 291.6,833.6 679.3,1093.1 h -0.1 c 286,191.3 633.2,291.8 990.1,291.8 125.1,0 251.4,-12.4 376.6,-37.5 2.8,-0.5 5.5,-1 8.3,-1.5 1177.3,-188 2488.9,-472.2 3877.9,-787.2 -132.6,-34.9 -265.2,-70.5 -397.1,-106.5 l -3283.8,704 c -139.4,27.9 -280.8,42 -421.4,42 -391.1,0 -777.3,-108.5 -1106.2,-328.2 -407.4,-273 -640.5,-642.9 -736,-1043.2"
         style="fill:#e9c6af;fill-opacity:1;fill-rule:nonzero;stroke:none"
         transform="matrix(0.13333333,0,0,-0.13333333,0,5333.3333)" />
      <path
         id="path57"
         d="m 13214.6,7969.4 c -387.7,-259.5 -622.6,-637.4 -679.3,-1093.1 -58.3,-469.5 84.8,-926.5 403.2,-1286.9 326.1,-369.1 795.3,-580.8 1287.5,-580.8 h 8153.6 v 1543.6 c -980.8,211.7 -1926.1,428.4 -2841.8,638.3 -1785.8,409.3 -3472.5,796 -4948.3,1031.7 -2.8,0.5 -5.5,1 -8.3,1.5 -482.3,96.8 -980.5,4.1 -1366.7,-254.3 h 0.1 M 22593.1,4581.6 H 14226 c -614.5,0 -1200.4,264.3 -1607.5,725.1 -394.7,446.9 -579.5,1038.2 -506.8,1622.3 72.4,582.3 371.7,1064.8 865.4,1395.2 v 0 c 478.7,320.4 1092.2,436.6 1683.8,318.9 1488.9,-238 3181,-625.9 4972.3,-1036.5 966.6,-221.6 1966.2,-450.7 3004.6,-673.3 98.4,-21.1 168.8,-108.1 168.8,-208.7 V 4795.1 c 0,-117.9 -95.6,-213.5 -213.5,-213.5"
         style="fill:#1a1a1a;fill-opacity:1;fill-rule:nonzero;stroke:none"
         transform="matrix(0.13333333,0,0,-0.13333333,0,5333.3333)" />
      <path
         id="path58"
         d="m 26252.8,8146.8 c 475,-317.9 713.1,-768 772.3,-1244.1 C 27165,5777.9 26256,4795.1 25122.6,4795.1 h -8367 v 1929.5 c 2696.8,804.8 5356.7,1393.3 7969.9,1708.4 526.9,105.7 1080.6,12.7 1527.3,-286.2"
         style="fill:#deaa87;fill-opacity:1;fill-rule:nonzero;stroke:none"
         transform="matrix(0.13333333,0,0,-0.13333333,0,5333.3333)" />
      <path
         id="path59"
         d="M 25122.6,5008.6 H 16969 v 498.9 h 7648.9 c 1122.1,0 2024.1,963 1906.7,2073.9 14.1,-11.9 28,-24 41.5,-36.2 132.6,-195.5 216.3,-420.7 247.2,-668.9 58.4,-469.5 -84.8,-926.5 -403.2,-1286.9 -326,-369.1 -795.3,-580.8 -1287.5,-580.8"
         style="fill:#e9c6af;fill-opacity:1;fill-rule:nonzero;stroke:none"
         transform="matrix(0.13333333,0,0,-0.13333333,0,5333.3333)" />
      <path
         id="path60"
         d="m 16969,6323.5 v 243.2 c 2468.6,750.1 5086.4,1306.6 7783.8,1654.6 4.9,0.6 9.8,1.4 14.7,2.4 125.2,25.1 251.5,37.5 376.6,37.5 356.9,0 704.1,-100.5 990,-291.8 153.7,-102.9 283.5,-224.5 387.6,-362.1 1,-8.6 2,-17.3 2.9,-25.9 -53.8,45.3 -111.4,88.7 -173.1,129.9 -328.1,219.9 -714.3,328.2 -1105,328.2 -140.9,0 -282.4,-14 -422,-42.1 C 22248.1,7687.2 19626.9,7110.5 16969,6323.5"
         style="fill:#f4e3d7;fill-opacity:1;fill-rule:nonzero;stroke:none"
         transform="matrix(0.13333333,0,0,-0.13333333,0,5333.3333)" />
      <path
         id="path61"
         d="m 26566.1,7545.2 c -13.5,12.2 -27.4,24.3 -41.5,36.2 -0.9,8.6 -1.9,17.3 -2.9,25.9 15.3,-20.3 30.2,-41 44.4,-62.1"
         style="fill:#acb8e9;fill-opacity:1;fill-rule:nonzero;stroke:none"
         transform="matrix(0.13333333,0,0,-0.13333333,0,5333.3333)" />
      <path
         id="path62"
         d="m 16969,5008.6 h 8153.6 c 492.2,0 961.5,211.7 1287.5,580.8 318.4,360.4 461.6,817.4 403.2,1286.9 -56.6,455.6 -291.5,833.6 -679.2,1093.1 -386.1,258.3 -884.1,351.1 -1366.6,254.3 -4.9,-1 -9.8,-1.8 -14.7,-2.4 -2697.4,-348 -5315.2,-904.5 -7783.8,-1654.6 V 5008.6 m 8153.6,-427 h -8367.1 c -117.8,0 -213.4,95.6 -213.4,213.5 v 1929.5 c 0,93.7 61.1,176.4 150.7,204 2533.5,779.9 5224.4,1357 7998.1,1715.2 590.5,116.4 1202.8,0.2 1680.6,-319.6 h 0.1 c 493.7,-330.5 793,-812.9 865.3,-1395.2 72.7,-584.1 -112.1,-1175.4 -506.8,-1622.3 -407.1,-460.8 -993,-725.1 -1607.5,-725.1"
         style="fill:#1a1a1a;fill-opacity:1;fill-rule:nonzero;stroke:none"
         transform="matrix(0.13333333,0,0,-0.13333333,0,5333.3333)" />
      <path
         id="path63"
         d="m 16755.6,4795.1 h -3008.1 c 0,0 -385.9,554.1 465.1,653.1 851,98.9 1355.6,662.9 1355.6,662.9 0,0 633.2,692.6 1187.4,99 v -1415"
         style="fill:#ffffff;fill-opacity:1;fill-rule:nonzero;stroke:none"
         transform="matrix(0.13333333,0,0,-0.13333333,0,5333.3333)" />
      <path
         id="path64"
         d="m 13765,4826.8 h 2958.9 v 1370.6 c -140.6,146.9 -298.4,221.4 -469.2,221.4 -1,0 -2,0 -3.1,0 -356.7,-1.8 -657,-325.8 -660,-329.1 -4.9,-5.5 -522.3,-573.9 -1375.3,-673 -274.2,-31.9 -442.9,-113.7 -501.4,-243.2 -63.1,-139.6 21.7,-299.7 50.1,-346.7 m 3022.2,-63.4 H 13731 l -9.5,13.6 c -6.3,9 -153.7,224.4 -64.5,422.3 68.2,151.3 253.9,245.7 552,280.3 828.2,96.4 1330.6,647.1 1335.6,652.7 13.2,14.4 322.5,347.9 706.7,349.9 1.2,0 2.3,0 3.4,0 192.6,0 368.9,-84.2 524,-250.5 l 8.5,-9.1 V 4763.4"
         style="fill:#451661;fill-opacity:1;fill-rule:nonzero;stroke:none"
         transform="matrix(0.13333333,0,0,-0.13333333,0,5333.3333)" />
      <path
         id="path65"
         d="M 16723.9,4826.8 H 13765 c -28.4,47 -113.2,207.1 -50.1,346.7 10.8,23.9 25.4,46.2 43.7,66.9 h 1871.5 c 383.5,0 695.2,311.1 695.2,695.2 v 478.9 c 143.9,-17.9 277.6,-90.6 398.6,-217.1 V 4826.8"
         style="fill:#c7b9cf;fill-opacity:1;fill-rule:nonzero;stroke:none"
         transform="matrix(0.13333333,0,0,-0.13333333,0,5333.3333)" />
      <path
         id="path66"
         d="m 16755.8,4795.1 h -3008.3 c 0,0 -175.1,251.1 -29,445.3 h 40.1 c -18.3,-20.7 -32.9,-43 -43.7,-66.9 -63.1,-139.6 21.7,-299.7 50.1,-346.7 h 2958.9 v 1370.6 c -121,126.5 -254.7,199.2 -398.6,217.1 v 31.6 c 140.1,-16 288,-83.7 430.5,-236.2 V 4795.1"
         style="fill:#451661;fill-opacity:1;fill-rule:nonzero;stroke:none"
         transform="matrix(0.13333333,0,0,-0.13333333,0,5333.3333)" />
      <path
         id="path67"
         d="m 13865,4985.4 h 2700.3 v 1145.1 c -97.6,87.2 -199.7,129.7 -310.6,129.7 h -2.2 c -283.6,-1.4 -541.3,-274.7 -543.9,-277.5 -21.2,-23.7 -561.8,-617.5 -1474,-723.5 -202.2,-23.6 -342.4,-79.8 -375,-150.4 -15.8,-34.5 -8.7,-81.5 5.4,-123.4 z m 2890.5,-380.6 h -3008 c -62.2,0 -120.5,30.5 -156.1,81.6 -21.1,30.3 -202.6,303.8 -79,578 92.7,205.8 320.9,331.2 678.2,372.7 764.1,88.9 1231.5,596.2 1236.2,601.3 15.9,17.4 370.9,400 823.7,402.4 1.4,0 2.9,0 4.4,0 238.1,0 453.4,-101.2 639.8,-300.9 32.8,-35.2 51.1,-81.6 51.1,-129.8 v -1415 c 0,-105.1 -85.2,-190.3 -190.3,-190.3"
         style="fill:#1a1a1a;fill-opacity:1;fill-rule:nonzero;stroke:none"
         transform="matrix(0.13333333,0,0,-0.13333333,0,5333.3333)" />
      <path
         id="path68"
         d="m 20648.8,20720.2 c 0,0 -306.3,-195.5 -1104.2,-195.5 -173.1,-12 -668.5,15.2 -1294.5,586.8 0,0 289.2,-833.6 1275.9,-833.6 0,0 561.4,-51 1122.8,442.3"
         style="fill:#f4d7d7;fill-opacity:1;fill-rule:nonzero;stroke:none"
         transform="matrix(0.13333333,0,0,-0.13333333,0,5333.3333)" />
      <path
         id="path69"
         d="m 18663.4,20683.4 c 184.4,-164.7 461.1,-310.3 862.6,-310.3 2.9,0 5.8,-0.2 8.6,-0.4 3,-0.3 205.8,-15.1 483.4,82.4 -134,-15.5 -290.1,-25.5 -470.2,-25.6 -145.6,-9.4 -466.7,7.5 -884.4,253.9 z m 911.4,-502.2 c -26.1,0 -44.1,1 -52.6,1.6 -1039.3,2.1 -1358.9,888.6 -1362,897.5 -14.3,41.1 1.2,86.7 37.5,110.6 36.3,23.9 84.3,20.2 116.5,-9.1 594.5,-542.8 1053.9,-574.1 1223.8,-562.2 2.2,0.1 4.4,0.2 6.6,0.2 751.7,0 1050.6,179.2 1053.6,181 41.9,25.9 97.3,15.6 126.7,-24.2 29.4,-39.7 23.8,-95.2 -13.4,-127.8 -486.7,-427.8 -972.7,-467.6 -1136.7,-467.6"
         style="fill:#1a1a1a;fill-opacity:1;fill-rule:nonzero;stroke:none"
         transform="matrix(0.13333333,0,0,-0.13333333,0,5333.3333)" />
      <path
         id="path70"
         d="m 16118.3,24424.7 c 141.6,449.7 639.7,714.8 1097.9,705.8 458.5,-2 940.8,-264.9 1098.7,-705.8 -388.8,135.5 -716.1,226.6 -1103.1,230.9 -386.8,4.8 -710.5,-79.8 -1093.5,-230.9"
         style="fill:#2b1100;fill-opacity:1;fill-rule:nonzero;stroke:none"
         transform="matrix(0.13333333,0,0,-0.13333333,0,5333.3333)" />
      <path
         id="path71"
         d="m 23768.7,24424.7 c -211.8,81.7 -391.6,143.1 -570.8,179.7 -177.8,37.7 -350.1,52.6 -522.8,51.2 -172.6,-2.5 -345.5,-21.6 -524.9,-60.3 -180.8,-37.5 -362.9,-97.4 -578.1,-170.6 74.4,215.7 235.8,390.8 431.1,513.9 196.5,122.5 431.2,190.4 667.6,191.9 236.1,2.8 474.2,-60.5 672.8,-183.7 197.3,-123.6 358.6,-303.7 425.1,-522.1"
         style="fill:#2b1100;fill-opacity:1;fill-rule:nonzero;stroke:none"
         transform="matrix(0.13333333,0,0,-0.13333333,0,5333.3333)" />
      <path
         id="path72"
         d="m 16627.9,22867.9 c 54.9,-645.4 493.2,-1135.1 979,-1093.8 485.8,41.3 835.2,598 780.4,1243.3 -54.9,645.4 -493.2,1135.1 -979,1093.9 -485.8,-41.3 -835.2,-598 -780.4,-1243.4"
         style="fill:#2b1100;fill-opacity:1;fill-rule:nonzero;stroke:none"
         transform="matrix(0.13333333,0,0,-0.13333333,0,5333.3333)" />
      <path
         id="path73"
         d="m 17442.7,23247.9 c 19.6,-230.6 163.9,-406.7 322.3,-393.3 158.4,13.5 270.9,211.4 251.3,442.1 -19.6,230.6 -163.9,406.7 -322.3,393.3 -158.4,-13.5 -270.9,-211.4 -251.3,-442.1"
         style="fill:#ffffff;fill-opacity:1;fill-rule:nonzero;stroke:none"
         transform="matrix(0.13333333,0,0,-0.13333333,0,5333.3333)" />
      <path
         id="path74"
         d="m 17227,22138.6 c -84.7,0 -162.2,118 -175.1,269.5 -13.3,156.1 47.1,288.7 134.8,296.1 2.6,0.3 5.2,0.4 7.8,0.4 84.7,0 162.2,-118 175.1,-269.5 13.3,-156.1 -47.1,-288.7 -134.8,-296.2 -2.6,-0.2 -5.2,-0.3 -7.8,-0.3"
         style="fill:#552200;fill-opacity:1;fill-rule:nonzero;stroke:none"
         transform="matrix(0.13333333,0,0,-0.13333333,0,5333.3333)" />
      <path
         id="path75"
         d="m 23337.3,22867.9 c -54.9,-645.4 -493.2,-1135.1 -979,-1093.8 -485.8,41.3 -835.2,598 -780.4,1243.3 54.9,645.4 493.2,1135.1 979,1093.9 485.8,-41.3 835.2,-598 780.4,-1243.4"
         style="fill:#2b1100;fill-opacity:1;fill-rule:nonzero;stroke:none"
         transform="matrix(0.13333333,0,0,-0.13333333,0,5333.3333)" />
      <path
         id="path76"
         d="m 22522.5,23247.9 c -19.6,-230.6 -163.9,-406.7 -322.3,-393.3 -158.4,13.5 -270.9,211.4 -251.3,442.1 19.6,230.6 163.9,406.7 322.3,393.3 158.4,-13.5 270.9,-211.4 251.3,-442.1"
         style="fill:#ffffff;fill-opacity:1;fill-rule:nonzero;stroke:none"
         transform="matrix(0.13333333,0,0,-0.13333333,0,5333.3333)" />
      <path
         id="path77"
         d="m 22738.2,22138.6 c -2.6,0 -5.2,0.1 -7.8,0.3 -87.7,7.5 -148,140.1 -134.8,296.2 12.9,151.5 90.4,269.5 175.1,269.5 2.6,0 5.2,-0.1 7.8,-0.4 87.7,-7.4 148.1,-140 134.8,-296.1 -12.9,-151.5 -90.4,-269.5 -175.1,-269.5"
         style="fill:#552200;fill-opacity:1;fill-rule:nonzero;stroke:none"
         transform="matrix(0.13333333,0,0,-0.13333333,0,5333.3333)" />
    </g>
  </g>
</svg>
